<?xml version="1.0" encoding="utf-8"?><!DOCTYPE svg PUBLIC "-//W3C//DTD SVG 1.1//EN" "http://www.w3.org/Graphics/SVG/1.1/DTD/svg11.dtd"><svg viewBox="0 0 612.01 612.01" xmlns="http://www.w3.org/2000/svg" xmlns:xlink="http://www.w3.org/1999/xlink"><style>:root>svg{display:none}:root>svg:target{display:block}</style><svg viewBox="0 0 18 7" id="arrow-right" xmlns="http://www.w3.org/2000/svg"><path d="M12.01 3H0v1h12.01L12 7l5.5-3.5L12 0l.01 3z"/></svg><svg viewBox="0 0 18 14" id="check" xmlns="http://www.w3.org/2000/svg"><path d="M1 7l6 6L17 1"/></svg><svg viewBox="0 0 491.996 491.996" id="chevron" xmlns="http://www.w3.org/2000/svg"><path d="M484.132 124.986l-16.116-16.228c-5.072-5.068-11.82-7.86-19.032-7.86-7.208 0-13.964 2.792-19.036 7.86l-183.84 183.848L62.056 108.554c-5.064-5.068-11.82-7.856-19.028-7.856s-13.968 2.788-19.036 7.856l-16.12 16.128c-10.496 10.488-10.496 27.572 0 38.06l219.136 219.924c5.064 5.064 11.812 8.632 19.084 8.632h.084c7.212 0 13.96-3.572 19.024-8.632l218.932-219.328c5.072-5.064 7.856-12.016 7.864-19.224 0-7.212-2.792-14.068-7.864-19.128z"/></svg><svg viewBox="0 0 16 16" id="close" xmlns="http://www.w3.org/2000/svg"><path d="M9.175 8l6.075-6.075A.833.833 0 0014.075.75L8 6.825 1.925.742A.833.833 0 00.75 1.917L6.825 8 .742 14.075a.834.834 0 101.175 1.175L8 9.175l6.075 6.075a.833.833 0 001.175-1.175L9.175 8z"/></svg><svg viewBox="0 0 512 512" id="email" xmlns="http://www.w3.org/2000/svg"><path d="M331.756 277.251l-42.881 43.026c-17.389 17.45-47.985 17.826-65.75 0l-42.883-43.026L26.226 431.767C31.959 434.418 38.28 436 45 436h422c6.72 0 13.039-1.58 18.77-4.232L331.756 277.251z"/><path d="M467 76H45c-6.72 0-13.041 1.582-18.772 4.233l164.577 165.123c.011.011.024.013.035.024a.05.05 0 01.013.026l53.513 53.69c5.684 5.684 17.586 5.684 23.27 0l53.502-53.681s.013-.024.024-.035c0 0 .024-.013.035-.024L485.77 80.232C480.039 77.58 473.72 76 467 76zM4.786 101.212C1.82 107.21 0 113.868 0 121v270c0 7.132 1.818 13.79 4.785 19.788l154.283-154.783L4.786 101.212zM507.214 101.21L352.933 256.005 507.214 410.79C510.18 404.792 512 398.134 512 391V121c0-7.134-1.82-13.792-4.786-19.79z"/></svg><svg viewBox="0 0 12 20" id="facebook" xmlns="http://www.w3.org/2000/svg"><path d="M3.198 19.5h4v-8.01h3.604l.396-3.98h-4V5.5a1 1 0 011-1h3v-4h-3a5 5 0 00-5 5v2.01h-2l-.396 3.98h2.396v8.01z"/></svg><svg viewBox="0 0 512 512" id="filters-icon" xmlns="http://www.w3.org/2000/svg"><path d="M497 60h-77.509C412.522 25.808 382.22 0 346 0s-66.522 25.808-73.491 60H15C6.716 60 0 66.716 0 75s6.716 15 15 15h257.509c6.968 34.192 37.271 60 73.491 60s66.522-25.808 73.491-60H497c8.284 0 15-6.716 15-15s-6.716-15-15-15zm-151 60c-24.809 0-44.993-20.18-45-44.987l.001-.013-.001-.013C301.007 50.18 321.191 30 346 30c24.813 0 45 20.187 45 45s-20.187 45-45 45zM497 241H239.491c-6.968-34.192-37.271-60-73.491-60s-66.522 25.808-73.491 60H15c-8.284 0-15 6.716-15 15s6.716 15 15 15h77.509c6.968 34.192 37.271 60 73.491 60s66.522-25.808 73.491-60H497c8.284 0 15-6.716 15-15s-6.716-15-15-15zm-331 60c-24.809 0-44.993-20.18-45-44.987l.001-.013-.001-.013C121.007 231.18 141.191 211 166 211c24.813 0 45 20.187 45 45s-20.187 45-45 45zM497 422h-77.509c-6.968-34.192-37.271-60-73.491-60s-66.522 25.808-73.491 60H15c-8.284 0-15 6.716-15 15s6.716 15 15 15h257.509c6.968 34.192 37.271 60 73.491 60s66.522-25.808 73.491-60H497c8.284 0 15-6.716 15-15s-6.716-15-15-15zm-151 60c-24.809 0-44.993-20.18-45-44.987l.001-.013-.001-.013C301.007 412.18 321.191 392 346 392c24.813 0 45 20.187 45 45s-20.187 45-45 45z"/></svg><svg viewBox="0 0 16 15" id="grid-icon" xmlns="http://www.w3.org/2000/svg"><path fill-rule="evenodd" d="M2 1h3v3H2V1zm10 0h3v3h-3V1zm0 10h3v3h-3v-3zM2 11h3v3H2v-3z"/></svg><svg viewBox="0 0 64 64" id="location" xmlns="http://www.w3.org/2000/svg"><path d="M32 0A24.032 24.032 0 008 24c0 17.23 22.36 38.81 23.31 39.72a.99.99 0 001.38 0C33.64 62.81 56 41.23 56 24A24.032 24.032 0 0032 0zm0 35a11 11 0 1111-11 11.007 11.007 0 01-11 11z"/></svg><svg viewBox="0 0 20 16" id="mail" xmlns="http://www.w3.org/2000/svg"><path d="M20 4.608v8.142a3.25 3.25 0 01-3.066 3.245L16.75 16H3.25a3.25 3.25 0 01-3.245-3.066L0 12.75V4.608l9.652 5.056a.75.75 0 00.696 0L20 4.608zM3.25 0h13.5a3.25 3.25 0 013.234 2.924L10 8.154.016 2.924A3.25 3.25 0 013.064.005L3.25 0h13.5-13.5z"/></svg><svg viewBox="0 0 426.667 426.667" id="office" xmlns="http://www.w3.org/2000/svg"><path d="M362.667 384V0H64v384H0v42.667h426.667V384h-64zM192 42.667h42.667v42.667H192V42.667zM192 128h42.667v42.667H192V128zm0 85.333h42.667V256H192v-42.667zM149.333 256h-42.667v-42.667h42.667V256zm0-85.333h-42.667V128h42.667v42.667zm0-85.334h-42.667V42.667h42.667v42.666zM256 384h-85.333v-85.333H256V384zm64-128h-42.667v-42.667H320V256zm0-85.333h-42.667V128H320v42.667zm0-85.334h-42.667V42.667H320v42.666z"/></svg><svg viewBox="0 0 513.64 513.64" id="phone" xmlns="http://www.w3.org/2000/svg"><path d="M499.66 376.96l-71.68-71.68c-25.6-25.6-69.12-15.359-79.36 17.92-7.68 23.041-33.28 35.841-56.32 30.72-51.2-12.8-120.32-79.36-133.12-133.12-7.68-23.041 7.68-48.641 30.72-56.32 33.28-10.24 43.52-53.76 17.92-79.36l-71.68-71.68c-20.48-17.92-51.2-17.92-69.12 0L18.38 62.08c-48.64 51.2 5.12 186.88 125.44 307.2s256 176.641 307.2 125.44l48.64-48.64c17.921-20.48 17.921-51.2 0-69.12z"/></svg><svg viewBox="0 0 612.01 612.01" id="search" xmlns="http://www.w3.org/2000/svg"><path d="M606.209 578.714L448.198 423.228C489.576 378.272 515 318.817 515 253.393 514.98 113.439 399.704 0 257.493 0S.006 113.439.006 253.393s115.276 253.393 257.487 253.393c61.445 0 117.801-21.253 162.068-56.586l158.624 156.099c7.729 7.614 20.277 7.614 28.006 0a19.291 19.291 0 00.018-27.585zM257.493 467.8c-120.326 0-217.869-95.993-217.869-214.407S137.167 38.986 257.493 38.986c120.327 0 217.869 95.993 217.869 214.407S377.82 467.8 257.493 467.8z"/></svg><svg viewBox="0 0 22 17" id="twitter" xmlns="http://www.w3.org/2000/svg"><path d="M21.46 2c-.77.35-1.6.58-2.46.69.88-.53 1.56-1.37 1.88-2.38-.83.5-1.75.85-2.72 1.05C17.37.5 16.26 0 15 0c-2.35 0-4.27 1.92-4.27 4.29 0 .34.04.67.11.98C7.28 5.09 4.11 3.38 2 .79c-.37.63-.58 1.37-.58 2.15 0 1.49.75 2.81 1.91 3.56-.71 0-1.37-.2-1.95-.5v.03c0 2.08 1.48 3.82 3.44 4.21a4.22 4.22 0 01-1.93.07 4.28 4.28 0 004 2.98 8.521 8.521 0 01-5.33 1.84c-.34 0-.68-.02-1.02-.06C2.44 16.29 4.7 17 7.12 17 15 17 19.33 10.46 19.33 4.79c0-.19 0-.37-.01-.56.84-.6 1.56-1.36 2.14-2.23z"/></svg><svg viewBox="0 0 24 24" id="vk" xmlns="http://www.w3.org/2000/svg"><path d="M23.456 5.784a8.605 8.605 0 01-1.09 2.259l.019-.03q-.672 1.12-1.605 2.588-.8 1.159-.847 1.2a1.28 1.28 0 00-.267.618l-.001.007a.897.897 0 00.268.535l.4.446q3.21 3.299 3.611 4.548a.89.89 0 01-.112.829l.002-.003a.965.965 0 01-.784.289h.004H20.418c-.337 0-.647-.118-.89-.314l.003.002a6.928 6.928 0 01-.951-.948l-.009-.012q-.691-.781-1.226-1.315-1.782-1.694-2.63-1.694a.788.788 0 00-.516.135l.003-.002a.767.767 0 00-.16.584v-.004a12.532 12.532 0 00-.038 1.403v-.017 1.159a.78.78 0 01-.266.757l-.001.001a3.179 3.179 0 01-1.617.267l.013.001a8.323 8.323 0 01-4.275-1.268l.035.02A11.931 11.931 0 014.176 14.3l-.027-.042a26.36 26.36 0 01-2.471-3.992l-.07-.154A24.657 24.657 0 01.375 7.31l-.06-.185a6.646 6.646 0 01-.31-1.535l-.002-.025q0-.758.892-.758h2.63a1.058 1.058 0 01.739.225l-.002-.002c.2.219.348.488.421.788l.003.012a25.422 25.422 0 001.587 3.615l-.067-.137a14.56 14.56 0 001.623 2.576l-.023-.031q.8.982 1.248.982l.032.001a.4.4 0 00.347-.2l.001-.002a1.783 1.783 0 00.111-.787v.006-3.879a3.211 3.211 0 00-.32-1.267l.008.019a2.956 2.956 0 00-.45-.695l.003.004a1.099 1.099 0 01-.311-.619l-.001-.006c0-.17.078-.323.2-.423l.001-.001a.678.678 0 01.46-.178h4.154a.634.634 0 01.559.222l.001.001a1.36 1.36 0 01.159.763v-.005 5.173a.993.993 0 00.136.584l-.002-.004a.401.401 0 00.333.178h.001a.946.946 0 00.471-.162l-.003.002c.272-.187.506-.4.709-.641l.004-.005a15.606 15.606 0 001.655-2.25l.039-.07c.344-.57.716-1.272 1.053-1.993l.062-.147.446-.892a1.122 1.122 0 011.117-.759h-.003 2.631q1.066 0 .8.981z"/></svg></svg>