<svg version="1.1" id="Capa_1" xmlns="http://www.w3.org/2000/svg" x="0" y="0" viewBox="0 0 426.667 426.667" xml:space="preserve"><path d="M362.667 384V0H64v384H0v42.667h426.667V384h-64zM192 42.667h42.667v42.667H192V42.667zM192 128h42.667v42.667H192V128zm0 85.333h42.667V256H192v-42.667zM149.333 256h-42.667v-42.667h42.667V256zm0-85.333h-42.667V128h42.667v42.667zm0-85.334h-42.667V42.667h42.667v42.666zM256 384h-85.333v-85.333H256V384zm64-128h-42.667v-42.667H320V256zm0-85.333h-42.667V128H320v42.667zm0-85.334h-42.667V42.667H320v42.666z"/></svg>