<?xml version="1.0" encoding="iso-8859-1"?>
<!-- Generator: Adobe Illustrator 19.0.0, SVG Export Plug-In . SVG Version: 6.00 Build 0)  -->
<svg version="1.1" id="Capa_1" xmlns="http://www.w3.org/2000/svg" xmlns:xlink="http://www.w3.org/1999/xlink" x="0px" y="0px"
	 viewBox="0 0 426.667 426.667" style="enable-background:new 0 0 426.667 426.667;" xml:space="preserve">
<g>
	<g>
		<path d="M362.667,384V0H64v384H0v42.667h426.667V384H362.667z M192,42.667h42.667v42.667H192V42.667z M192,128h42.667v42.667H192
			V128z M192,213.333h42.667V256H192V213.333z M149.333,256h-42.667v-42.667h42.667V256z M149.333,170.667h-42.667V128h42.667
			V170.667z M149.333,85.333h-42.667V42.667h42.667V85.333z M256,384h-85.333v-85.333H256V384z M320,256h-42.667v-42.667H320V256z
			 M320,170.667h-42.667V128H320V170.667z M320,85.333h-42.667V42.667H320V85.333z"/>
	</g>
</g>
<g>
</g>
<g>
</g>
<g>
</g>
<g>
</g>
<g>
</g>
<g>
</g>
<g>
</g>
<g>
</g>
<g>
</g>
<g>
</g>
<g>
</g>
<g>
</g>
<g>
</g>
<g>
</g>
<g>
</g>
</svg>
